<?xml version="1.0" encoding="UTF-8"?>
<svg width="164px" height="31px" viewBox="0 0 164 31" version="1.1" xmlns="http://www.w3.org/2000/svg" xmlns:xlink="http://www.w3.org/1999/xlink">
    <!-- Generator: Sketch 58 (84663) - https://sketch.com -->
    <title>Audiopium</title>
    <desc>Created with Sketch.</desc>
    <g id="landing-page" stroke="none" stroke-width="1" fill="none" fill-rule="evenodd">
        <g id="Desktop-HD" transform="translate(-101.000000, -204.000000)" fill="#FFFFFF" fill-rule="nonzero">
            <path d="M101.032,228 L105.832,228 L108.04,222.816 L117.704,222.816 L119.912,228 L124.776,228 L114.952,205.28 L110.824,205.28 L101.032,228 Z M109.736,218.752 L112.872,211.36 L116.008,218.752 L109.736,218.752 Z M141.48,212 L137.096,212 L137.096,222.528 C136.392,223.648 135.208,224.352 134.088,224.352 C132.008,224.352 131.08,222.816 131.08,220.544 L131.08,212 L126.696,212 L126.696,221.28 C126.696,225.536 129.064,228.352 133.16,228.352 C134.504,228.352 136.072,227.776 137.096,226.72 L137.096,228 L141.48,228 L141.48,212 Z M144.68,220 C144.68,224.48 147.848,228.352 152.584,228.352 C154.312,228.352 155.752,227.744 156.68,226.816 L156.68,228 L161.064,228 L161.064,204.64 L156.68,204.64 L156.68,213.152 C155.752,212.256 154.312,211.648 152.584,211.648 C147.848,211.648 144.68,215.52 144.68,220 Z M156.68,222.592 C155.944,223.616 154.92,224.352 153.224,224.352 C150.856,224.352 149.224,222.368 149.224,220 C149.224,217.632 150.856,215.648 153.224,215.648 C154.92,215.648 155.944,216.384 156.68,217.376 L156.68,222.592 Z M170.28,207.232 C170.28,205.696 169.032,204.448 167.464,204.448 C165.96,204.448 164.68,205.696 164.68,207.232 C164.68,208.768 165.96,210.016 167.464,210.016 C169.032,210.016 170.28,208.768 170.28,207.232 Z M165.288,228 L169.672,228 L169.672,212 L165.288,212 L165.288,228 Z M189.672,220 C189.672,215.328 185.896,211.648 181.256,211.648 C176.616,211.648 172.84,215.328 172.84,220 C172.84,224.672 176.616,228.352 181.256,228.352 C185.896,228.352 189.672,224.672 189.672,220 Z M177.256,220 C177.256,217.536 178.952,215.744 181.256,215.744 C183.56,215.744 185.224,217.536 185.224,220 C185.224,222.464 183.56,224.256 181.256,224.256 C178.952,224.256 177.256,222.464 177.256,220 Z M192.84,234.208 L197.224,234.208 L197.224,226.816 C198.152,227.744 199.624,228.352 201.32,228.352 C206.056,228.352 209.224,224.48 209.224,220 C209.224,215.52 206.056,211.648 201.32,211.648 C199.624,211.648 198.152,212.256 197.224,213.152 L197.224,212 L192.84,212 L192.84,234.208 Z M197.224,222.592 L197.224,217.376 C197.96,216.384 198.984,215.648 200.68,215.648 C203.08,215.648 204.712,217.632 204.712,220 C204.712,222.368 203.08,224.352 200.68,224.352 C198.984,224.352 197.96,223.616 197.224,222.592 Z M217.448,207.232 C217.448,205.696 216.2,204.448 214.632,204.448 C213.128,204.448 211.848,205.696 211.848,207.232 C211.848,208.768 213.128,210.016 214.632,210.016 C216.2,210.016 217.448,208.768 217.448,207.232 Z M212.456,228 L216.84,228 L216.84,212 L212.456,212 L212.456,228 Z M235.656,212 L231.272,212 L231.272,222.528 C230.568,223.648 229.384,224.352 228.264,224.352 C226.184,224.352 225.256,222.816 225.256,220.544 L225.256,212 L220.872,212 L220.872,221.28 C220.872,225.536 223.24,228.352 227.336,228.352 C228.68,228.352 230.248,227.776 231.272,226.72 L231.272,228 L235.656,228 L235.656,212 Z M260.04,228 L260.04,219.552 C260.04,217.344 259.304,215.68 257.288,215.68 C255.976,215.68 254.824,216.416 254.216,217.568 C254.312,218.016 254.344,218.336 254.344,218.784 L254.344,228 L249.96,228 L249.96,219.552 C249.96,217.344 249.224,215.68 247.208,215.68 C245.96,215.68 244.808,216.384 244.264,217.376 L244.264,228 L239.88,228 L239.88,212 L244.264,212 L244.264,213.248 C245.096,212.288 246.696,211.648 248.168,211.648 C250.056,211.648 251.592,212.448 252.68,213.76 C253.672,212.608 255.496,211.648 257.896,211.648 C262.408,211.648 264.424,214.816 264.424,218.784 L264.424,228 L260.04,228 Z" id="Audiopium"></path>
        </g>
    </g>
</svg>