<?xml version="1.0" encoding="UTF-8"?>
<svg width="12px" height="12px" viewBox="0 0 12 12" version="1.1" xmlns="http://www.w3.org/2000/svg" xmlns:xlink="http://www.w3.org/1999/xlink">
    <!-- Generator: Sketch 58 (84663) - https://sketch.com -->
    <title>skip_next-24px-2 copy</title>
    <desc>Created with Sketch.</desc>
    <g id="Symbols" stroke="none" stroke-width="1" fill="none" fill-rule="evenodd">
        <g id="mobile/music-player/card" transform="translate(-151.000000, -21.000000)" fill="#FFFFFF" fill-rule="nonzero">
            <g id="Group-34">
                <g id="Group-31" transform="translate(20.000000, 11.000000)">
                    <g id="skip_next-24px-2-copy" transform="translate(131.000000, 10.000000)">
                        <path d="M1.58,10.89 L7.35,6.82 C7.91,6.42 7.91,5.58 7.35,5.19 L1.58,1.11 C0.91,0.65 0,1.12 0,1.93 L0,10.07 C0,10.88 0.91,11.35 1.58,10.89 Z M10,1 L10,11 C10,11.55 10.45,12 11,12 C11.55,12 12,11.55 12,11 L12,1 C12,0.45 11.55,0 11,0 C10.45,0 10,0.45 10,1 Z" id="Shape"></path>
                    </g>
                </g>
            </g>
        </g>
    </g>
</svg>