<?xml version="1.0" encoding="UTF-8"?>
<svg width="12px" height="12px" viewBox="0 0 12 12" version="1.1" xmlns="http://www.w3.org/2000/svg" xmlns:xlink="http://www.w3.org/1999/xlink">
    <!-- Generator: Sketch 58 (84663) - https://sketch.com -->
    <title>skip_previous-24px-2 copy</title>
    <desc>Created with Sketch.</desc>
    <g id="Symbols" stroke="none" stroke-width="1" fill="none" fill-rule="evenodd">
        <g id="mobile/music-player/card" transform="translate(-20.000000, -21.000000)" fill="#FFFFFF" fill-rule="nonzero">
            <g id="Group-34">
                <g id="Group-31" transform="translate(20.000000, 11.000000)">
                    <g id="skip_previous-24px-2-copy" transform="translate(0.000000, 10.000000)">
                        <path d="M0.923076923,0 C1.43076923,0 1.84615385,0.415384615 1.84615385,0.923076923 L1.84615385,10.1538462 C1.84615385,10.6615385 1.43076923,11.0769231 0.923076923,11.0769231 C0.415384615,11.0769231 0,10.6615385 0,10.1538462 L0,0.923076923 C0,0.415384615 0.415384615,0 0.923076923,0 Z M4.30153846,6.29538462 L9.62769231,10.0523077 C10.2369231,10.4861538 11.0861538,10.0430769 11.0861538,9.29538462 L11.0861538,1.78153846 C11.0861538,1.03384615 10.2461538,0.6 9.62769231,1.02461538 L4.30153846,4.78153846 C3.77538462,5.15076923 3.77538462,5.92615385 4.30153846,6.29538462 Z" id="Shape"></path>
                    </g>
                </g>
            </g>
        </g>
    </g>
</svg>