<?xml version="1.0" encoding="UTF-8"?>
<svg width="22px" height="24px" viewBox="0 0 22 24" version="1.1" xmlns="http://www.w3.org/2000/svg" xmlns:xlink="http://www.w3.org/1999/xlink">
    <!-- Generator: Sketch 58 (84663) - https://sketch.com -->
    <title>share-24px</title>
    <desc>Created with Sketch.</desc>
    <g id="Symbols" stroke="none" stroke-width="1" fill="none" fill-rule="evenodd">
        <g id="desktop/song-card/liked" transform="translate(-282.000000, -486.000000)">
            <g id="Group-6-Copy-19">
                <g id="Group-13" transform="translate(-268.800011, -198.000008)">
                    <g id="card-content" transform="translate(297.600012, 226.800009)">
                        <g id="Group-20" transform="translate(0.000000, 182.400007)">
                            <g id="Group-14" transform="translate(0.000000, 272.400011)">
                                <g id="share-24px" transform="translate(249.600010, 0.000000)">
                                    <polygon id="Path" points="0 0 28.8000011 0 28.8000011 28.8000011 0 28.8000011"></polygon>
                                    <path d="M21.6000001,19.2960008 C20.6880008,19.2960008 19.8720008,19.6560008 19.2480008,20.2200008 L10.6920004,15.2400006 C10.7520004,14.9640006 10.8000004,14.6880006 10.8000004,14.4000001 C10.8000004,14.1120006 10.7520004,13.8360005 10.6920004,13.5600005 L19.1520008,8.62800034 C19.8000008,9.22800037 20.6520008,9.60000038 21.6000001,9.60000038 C23.5920009,9.60000038 25.200001,7.99200032 25.200001,6.00000024 C25.200001,4.00800016 23.5920009,2.4000001 21.6000001,2.4000001 C19.6080008,2.4000001 18.0000007,4.00800016 18.0000007,6.00000024 C18.0000007,6.28800025 18.0480007,6.56400026 18.1080007,6.84000027 L9.64800038,11.7720005 C9.00000036,11.1720004 8.14800032,10.8000004 7.20000029,10.8000004 C5.20800021,10.8000004 3.60000014,12.4080005 3.60000014,14.4000001 C3.60000014,16.3920007 5.20800021,18.0000007 7.20000029,18.0000007 C8.14800032,18.0000007 9.00000036,17.6280007 9.64800038,17.0280007 L18.1920007,22.0200009 C18.1320007,22.2720009 18.0960007,22.5360009 18.0960007,22.8000009 C18.0960007,24.732001 19.6680008,26.304001 21.6000001,26.304001 C23.5320009,26.304001 25.104001,24.732001 25.104001,22.8000009 C25.104001,20.8680008 23.5320009,19.2960008 21.6000001,19.2960008 Z" id="Path" fill="#FFFFFF" fill-rule="nonzero"></path>
                                </g>
                            </g>
                        </g>
                    </g>
                </g>
            </g>
        </g>
    </g>
</svg>