<?xml version="1.0" encoding="UTF-8"?>
<svg width="12px" height="12px" viewBox="0 0 12 12" version="1.1" xmlns="http://www.w3.org/2000/svg" xmlns:xlink="http://www.w3.org/1999/xlink">
    <!-- Generator: Sketch 58 (84663) - https://sketch.com -->
    <title>shuffle-24px copy</title>
    <desc>Created with Sketch.</desc>
    <g id="Symbols" stroke="none" stroke-width="1" fill="none" fill-rule="evenodd">
        <g id="mobile/music-player/card" transform="translate(-212.000000, -21.000000)" fill="#FFFFFF" fill-rule="nonzero">
            <g id="Group-34">
                <g id="Group-31" transform="translate(20.000000, 11.000000)">
                    <g id="shuffle-24px-copy" transform="translate(192.000000, 10.000000)">
                        <path d="M4.65176471,3.64941176 L1.49647059,0.494117647 C1.22117647,0.218823529 0.776470588,0.218823529 0.501176471,0.494117647 C0.225882353,0.769411765 0.225882353,1.21411765 0.501176471,1.48941176 L3.64941176,4.63764706 L4.65176471,3.64941176 Z M8.01176471,0.6 L8.85176471,1.44 L0.494117647,9.79764706 C0.218823529,10.0729412 0.218823529,10.5176471 0.494117647,10.7929412 C0.769411765,11.0682353 1.21411765,11.0682353 1.48941176,10.7929412 L9.85411765,2.44235294 L10.6941176,3.28235294 C10.9129412,3.50117647 11.2941176,3.34588235 11.2941176,3.02823529 L11.2941176,0.352941176 C11.2941176,0.155294118 11.1388235,0 10.9411765,0 L8.26588235,0 C7.94823529,0 7.79294118,0.381176471 8.01176471,0.6 L8.01176471,0.6 Z M7.64470588,6.64235294 L6.64941176,7.63764706 L8.85882353,9.84705882 L8.01176471,10.6941176 C7.79294118,10.9129412 7.94823529,11.2941176 8.26588235,11.2941176 L10.9411765,11.2941176 C11.1388235,11.2941176 11.2941176,11.1388235 11.2941176,10.9411765 L11.2941176,8.26588235 C11.2941176,7.94823529 10.9129412,7.79294118 10.6941176,8.01882353 L9.85411765,8.85882353 L7.64470588,6.64235294 L7.64470588,6.64235294 Z" id="Shape"></path>
                    </g>
                </g>
            </g>
        </g>
    </g>
</svg>