<svg width="303" height="37" viewBox="0 0 303 37" fill="none" xmlns="http://www.w3.org/2000/svg">
<path id="Audiopium" d="M13.88 21.504L18.824 9.648L23.72 21.504H13.88ZM0.44 36H7.976L11.24 28.032H26.36L29.624 36H37.352L22.328 0.815998H15.512L0.44 36ZM56.5381 36.528C65.8981 36.528 71.8021 31.344 71.8021 20.784V1.056H64.4581V21.12C64.4581 26.832 61.4821 29.76 56.6341 29.76C51.7861 29.76 48.8581 26.688 48.8581 20.832V1.056H41.4661V21.072C41.4661 31.296 47.2261 36.528 56.5381 36.528ZM80.1515 36H93.6395C104.632 36 112.216 28.368 112.216 18.528V18.432C112.216 8.592 104.632 1.056 93.6395 1.056H80.1515V36ZM93.6395 7.728C100.12 7.728 104.488 12.192 104.488 18.528V18.624C104.488 24.96 100.12 29.328 93.6395 29.328H87.4955V7.728H93.6395ZM119.909 36H127.301V1.056H119.909V36ZM153.438 36.576C164.19 36.576 172.014 28.416 172.014 18.528V18.432C172.014 8.496 164.286 0.48 153.534 0.48C142.782 0.48 134.958 8.64 134.958 18.528V18.624C134.958 28.56 142.686 36.576 153.438 36.576ZM153.534 29.808C147.198 29.808 142.686 24.672 142.686 18.528V18.432C142.686 12.288 147.102 7.248 153.438 7.248C159.774 7.248 164.286 12.384 164.286 18.528V18.624C164.286 24.768 159.87 29.808 153.534 29.808ZM179.339 36H186.683V25.344H192.779C200.555 25.344 206.843 21.216 206.843 13.152V13.056C206.843 5.952 201.803 1.056 193.499 1.056H179.339V36ZM186.683 18.768V7.728H192.875C196.859 7.728 199.403 9.648 199.403 13.2V13.296C199.403 16.416 197.003 18.768 193.019 18.768H186.683ZM213.425 36H220.817V1.056H213.425V36ZM244.554 36.528C253.914 36.528 259.818 31.344 259.818 20.784V1.056H252.474V21.12C252.474 26.832 249.498 29.76 244.65 29.76C239.802 29.76 236.874 26.688 236.874 20.832V1.056H229.482V21.072C229.482 31.296 235.242 36.528 244.554 36.528ZM268.167 36H275.367V12.864L285.351 27.984H285.543L295.623 12.72V36H302.967V1.056H295.047L285.543 16.176L276.087 1.056H268.167V36Z" fill="white"/>
</svg>
