<svg width="394" height="46" viewBox="0 0 394 46" fill="none" xmlns="http://www.w3.org/2000/svg">
<path d="M0.938 45H11.23L15.136 35.7H33.364L37.27 45H47.562L28.714 0.979998H19.786L0.938 45ZM18.732 27.144L24.25 13.876L29.768 27.144H18.732ZM72.9416 45.744C83.4816 45.744 91.0456 38.552 91.0456 27.578V0.979998H81.1876V27.702C81.1876 32.972 77.8396 36.196 72.9416 36.196C68.0436 36.196 64.6956 32.972 64.6956 27.702V0.979998H54.8376V27.578C54.8376 38.552 62.3396 45.744 72.9416 45.744ZM104.836 45H119.84C132.24 45 142.284 35.204 142.284 22.99C142.284 10.776 132.24 0.979998 119.84 0.979998H104.836V45ZM114.694 35.948V10.032H119.84C127.28 10.032 132.302 15.922 132.302 22.99C132.302 30.058 127.28 35.948 119.84 35.948H114.694ZM154.156 45H164.014V0.979998H154.156V45ZM198.563 45.744C211.087 45.744 221.317 35.514 221.317 22.99C221.317 10.466 211.087 0.235996 198.563 0.235996C185.977 0.235996 175.809 10.466 175.809 22.99C175.809 35.514 185.977 45.744 198.563 45.744ZM198.563 36.196C191.371 36.196 185.729 30.12 185.729 22.99C185.729 15.86 191.371 9.784 198.563 9.784C205.693 9.784 211.335 15.86 211.335 22.99C211.335 30.12 205.693 36.196 198.563 36.196ZM263.561 16.046C263.561 7.552 256.927 0.979998 248.061 0.979998H233.119V45H242.977V31.05H248.061C256.927 31.05 263.561 24.54 263.561 16.046ZM254.013 16.046C254.013 19.27 251.471 21.812 247.937 21.812H242.977V10.28H247.937C251.471 10.28 254.013 12.76 254.013 16.046ZM274.871 45H284.729V0.979998H274.871V45ZM316.612 45.744C327.152 45.744 334.716 38.552 334.716 27.578V0.979998H324.858V27.702C324.858 32.972 321.51 36.196 316.612 36.196C311.714 36.196 308.366 32.972 308.366 27.702V0.979998H298.508V27.578C298.508 38.552 306.01 45.744 316.612 45.744ZM348.505 45H358.363V19.704L368.035 35.576H374.483L384.031 19.828V45H393.951V0.979998H384.961L371.197 23.424L357.495 0.979998H348.505V45Z" fill="#008CCE"/>
</svg>
