<svg width="607" height="580" viewBox="0 0 607 580" fill="none" xmlns="http://www.w3.org/2000/svg">
<path d="M260.901 244.869C260.901 244.869 274.224 246.007 284.367 245.128C294.495 244.263 305.85 242.07 305.85 242.07C305.85 242.07 302.553 259.548 284.299 261.115C266.044 262.702 260.901 244.869 260.901 244.869Z" fill="white"/>
<path d="M406.263 220.184C406.263 220.184 419.587 221.315 429.729 220.436C439.858 219.564 451.212 217.385 451.212 217.385C451.212 217.385 447.916 234.849 429.661 236.423C411.406 238.003 406.263 220.184 406.263 220.184Z" fill="white"/>
<path d="M346.786 2.43848C175.382 -12.2947 7.37737 36.8909 0.477356 228.136C-4.25661 359.53 25.1757 441.315 135.705 465.107C130.645 479.452 118.023 510.588 96.3079 535.688C73.0672 562.545 63.4358 569.466 74.3954 576.775C85.3483 584.083 125.529 579.52 183.059 548.473C217.954 529.639 257.856 493.702 283.875 468.309C302.069 466.436 321.216 463.956 341.616 460.728C624.169 415.922 605.234 260.866 606.95 207.457C608.66 154.048 567.314 21.388 346.786 2.43848ZM79.5789 177.35C95.2726 114.576 154.689 111.218 179.353 130.269C204.018 149.321 207.376 172.861 207.376 172.861C207.376 172.861 204.018 172.861 191.689 169.503C179.353 166.139 178.236 176.226 183.842 189.679C189.455 203.138 209.63 252.467 141.243 259.197C113.146 261.955 63.8921 240.131 79.5789 177.35ZM110.98 353.372C110.898 353.27 99.7818 319.322 106.28 304.384C112.778 289.44 121.231 275.783 158.272 273.835C200.905 271.594 212.437 344.742 214.112 372.437C170.383 369.052 138.995 363.453 110.98 353.372ZM248.265 376.374C248.183 376.279 248.061 376.156 248.061 376.156C248.061 376.156 237.666 333.905 244.171 318.954C250.669 304.023 259.122 290.352 296.163 288.404C338.789 286.163 349.381 349.851 351.05 377.539C309.773 381.694 275.879 381.258 248.265 376.374ZM284.856 273.099C256.085 272.486 226.877 250.941 227.551 214.881C228.232 178.828 252.045 160.451 277.214 158.414C300.945 156.487 310.556 142.768 310.556 142.768C310.556 142.768 313.103 149.266 313.955 157.393C314.636 163.85 313.28 169.973 313.28 169.973C313.28 169.973 322.633 168.23 328.245 161.806C333.006 156.371 337.768 147.516 337.768 147.516C337.768 147.516 347.971 162.147 350.015 179.162C351.799 194.031 365.974 274.85 284.856 273.099ZM396.23 372.907C395.038 364.018 393.431 351.445 393.431 351.445C393.431 351.445 383.043 309.22 389.542 294.269C396.04 279.331 404.493 265.661 441.534 263.726C486.387 261.356 493.342 315.759 494.193 340.642C494.588 342.413 494.861 344.027 495.038 345.539C469.256 356.941 436.895 366.443 396.23 372.907ZM504.274 224.69C485.59 242.665 461.137 249.129 430.227 248.401C407.933 247.883 378.453 237.618 372.711 203.111C366.955 168.604 397.15 133.307 425.186 134.091C451.076 134.813 464.018 155.669 478.397 184.42C492.511 212.654 520.819 189.454 520.819 189.454C520.819 189.454 519.743 209.82 504.274 224.69Z" fill="white"/>
<path d="M125.257 231.413C125.257 231.413 138.587 232.55 148.716 231.678C158.858 230.8 170.206 228.613 170.206 228.613C170.206 228.613 166.909 246.092 148.654 247.665C130.407 249.238 125.257 231.413 125.257 231.413Z" fill="white"/>
</svg>
