<svg width="663" height="127" viewBox="0 0 663 127" fill="none" xmlns="http://www.w3.org/2000/svg">
<g clip-path="url(#clip0)">
<path d="M155.208 84.1637C155.208 110.75 171.584 126.662 195.916 126.662C208.049 126.662 218.26 123.281 223.961 114.397V126.662H246.172V0.0290527H223.099V53.8647C217.862 44.9805 208.182 41.0025 196.049 41.0025C172.314 40.9362 155.208 57.1797 155.208 84.1637ZM223.829 84.1637C223.829 99.3465 213.486 108.827 201.088 108.827C188.226 108.827 178.347 99.3465 178.347 84.1637C178.347 68.7159 188.292 59.0361 201.088 59.0361C213.486 59.0361 223.829 68.8484 223.829 84.1637Z" fill="black"/>
<path d="M317.975 93.9762C315.323 103.789 308.626 108.695 298.085 108.695C285.819 108.695 275.742 101.269 275.476 88.1418H333.622C334.351 84.8931 334.682 81.4455 334.682 77.6664C334.682 54.1299 318.638 40.8699 294.969 40.8699C269.708 40.8699 252.338 58.8372 252.338 83.2356C252.338 110.419 271.498 126.728 298.018 126.728C318.041 126.728 331.633 118.375 337.6 101.733L317.975 93.9762ZM275.476 72.7602C277.664 63.2793 285.554 57.7101 295.035 57.7101C305.378 57.7101 312.406 63.2793 312.406 72.0309L312.273 72.7602H275.476Z" fill="black"/>
<path d="M403.568 93.9762C400.916 103.789 394.22 108.695 383.678 108.695C371.413 108.695 361.335 101.269 361.07 88.1418H419.215C419.944 84.8931 420.276 81.4455 420.276 77.6664C420.276 54.1299 404.231 40.8699 380.562 40.8699C355.302 40.8699 337.931 58.8372 337.931 83.2356C337.931 110.419 357.092 126.728 383.612 126.728C403.634 126.728 417.226 118.375 423.193 101.733L403.568 93.9762ZM361.07 72.7602C363.258 63.2793 371.147 57.7101 380.628 57.7101C390.971 57.7101 397.999 63.2793 397.999 72.0309L397.866 72.7602H361.07Z" fill="black"/>
<path d="M501.692 126.795V105.91H453.227L500.366 60.0304V40.936H425.779V60.826H471.327L424.32 106.905V126.795H501.692Z" fill="black"/>
<path d="M569.119 93.9762C566.467 103.789 559.771 108.695 549.229 108.695C536.964 108.695 526.886 101.269 526.621 88.1418H584.766C585.495 84.8931 585.827 81.4455 585.827 77.6664C585.827 54.1299 569.782 40.8699 546.113 40.8699C520.853 40.8699 503.482 58.8372 503.482 83.2356C503.482 110.419 522.643 126.728 549.163 126.728C569.186 126.728 582.777 118.375 588.744 101.733L569.119 93.9762ZM526.621 72.7602C528.809 63.2793 536.698 57.7101 546.179 57.7101C556.522 57.7101 563.55 63.2793 563.55 72.0309L563.417 72.7602H526.621Z" fill="black"/>
<path d="M131.539 40.936H103.096V57.5773H131.539V40.936Z" fill="#40AB5D"/>
<path d="M131.539 64.0085H103.096V80.6498H131.539V64.0085Z" fill="url(#paint0_linear)"/>
<path d="M131.539 87.0811H103.096V103.722H131.539V87.0811Z" fill="url(#paint1_linear)"/>
<path d="M28.4427 110.154H0V126.795H28.4427V110.154Z" fill="url(#paint2_linear)"/>
<path d="M62.7861 110.154H34.3434V126.795H62.7861V110.154Z" fill="url(#paint3_linear)"/>
<path d="M97.1959 110.154H68.7532V126.795H97.1959V110.154Z" fill="url(#paint4_linear)"/>
<path d="M131.539 110.154H103.096V126.795H131.539V110.154Z" fill="url(#paint5_linear)"/>
<path d="M97.1959 87.0811H68.7532V103.722H97.1959V87.0811Z" fill="url(#paint6_linear)"/>
<path d="M62.7861 87.0811H34.3434V103.722H62.7861V87.0811Z" fill="url(#paint7_linear)"/>
<path d="M62.7861 64.0085H34.3434V80.6498H62.7861V64.0085Z" fill="url(#paint8_linear)"/>
<path d="M640.524 70.5721C640.524 71.434 640.524 73.0252 640.524 73.0252H663C663 73.0252 663 68.782 663 66.4615C663 51.7429 653.784 41.0686 638.336 41.0686C628.391 41.0686 621.364 45.9085 617.717 53.9308V41.0686H594.512V126.795H617.717V71.5666C617.717 62.815 622.424 57.9751 629.651 57.9751C636.281 58.0414 640.524 64.2736 640.524 70.5721Z" fill="black"/>
</g>
<defs>
<linearGradient id="paint0_linear" x1="117.457" y1="80.7936" x2="117.19" y2="63.7642" gradientUnits="userSpaceOnUse">
<stop stop-color="#358C7B"/>
<stop offset="0.5256" stop-color="#33A65E"/>
</linearGradient>
<linearGradient id="paint1_linear" x1="102.678" y1="102.868" x2="131.97" y2="87.9429" gradientUnits="userSpaceOnUse">
<stop stop-color="#222B90"/>
<stop offset="1" stop-color="#367B99"/>
</linearGradient>
<linearGradient id="paint2_linear" x1="0.00520162" y1="118.481" x2="28.4241" y2="118.481" gradientUnits="userSpaceOnUse">
<stop stop-color="#FF9900"/>
<stop offset="1" stop-color="#FF8000"/>
</linearGradient>
<linearGradient id="paint3_linear" x1="34.3751" y1="118.481" x2="62.794" y2="118.481" gradientUnits="userSpaceOnUse">
<stop stop-color="#FF8000"/>
<stop offset="1" stop-color="#CC1953"/>
</linearGradient>
<linearGradient id="paint4_linear" x1="68.745" y1="118.481" x2="97.164" y2="118.481" gradientUnits="userSpaceOnUse">
<stop stop-color="#CC1953"/>
<stop offset="1" stop-color="#241284"/>
</linearGradient>
<linearGradient id="paint5_linear" x1="103.081" y1="118.481" x2="131.5" y2="118.481" gradientUnits="userSpaceOnUse">
<stop stop-color="#222B90"/>
<stop offset="1" stop-color="#3559A6"/>
</linearGradient>
<linearGradient id="paint6_linear" x1="67.6233" y1="99.8885" x2="98.2857" y2="90.9222" gradientUnits="userSpaceOnUse">
<stop stop-color="#CC1953"/>
<stop offset="1" stop-color="#241284"/>
</linearGradient>
<linearGradient id="paint7_linear" x1="33.3635" y1="89.8654" x2="63.8055" y2="100.945" gradientUnits="userSpaceOnUse">
<stop offset="0.00266984" stop-color="#FFCC00"/>
<stop offset="0.9999" stop-color="#CE1938"/>
</linearGradient>
<linearGradient id="paint8_linear" x1="36.7637" y1="61.4223" x2="60.4053" y2="83.238" gradientUnits="userSpaceOnUse">
<stop offset="0.00266984" stop-color="#FFD100"/>
<stop offset="1" stop-color="#FD5A22"/>
</linearGradient>
<clipPath id="clip0">
<rect width="663" height="126.766" fill="white"/>
</clipPath>
</defs>
</svg>
