<svg width="565" height="565" viewBox="0 0 565 565" fill="none" xmlns="http://www.w3.org/2000/svg">
<path d="M282.5 0C207.576 0 135.721 29.7633 82.7423 82.7423C29.7633 135.721 0 207.576 0 282.5C0 357.424 29.7633 429.279 82.7423 482.258C135.721 535.237 207.576 565 282.5 565C357.424 565 429.279 535.237 482.258 482.258C535.237 429.279 565 357.424 565 282.5C565 207.576 535.237 135.721 482.258 82.7423C429.279 29.7633 357.424 0 282.5 0ZM365.048 147.391C371.077 148.604 375.291 154.051 375.291 161.329L373.492 350.582C371.683 364.533 360.224 377.876 342.738 382.728C321.031 388.187 299.918 378.487 295.094 360.898C290.874 343.308 304.142 324.501 325.849 318.436C337.908 315.404 349.382 317.231 358.427 322.083V207.437L246.276 238.983L245.652 383.951C243.843 397.902 232.408 411.245 214.922 416.097C193.215 421.557 172.102 411.832 167.279 394.243C163.058 376.653 176.326 357.871 198.033 351.806C210.092 348.773 221.542 350.576 230.587 355.428V201.368C230.587 192.269 237.831 181.965 246.876 179.537L365.048 147.391Z" fill="white"/>
</svg>
