<svg width="663" height="200" viewBox="0 0 663 200" fill="none" xmlns="http://www.w3.org/2000/svg">
<path fill-rule="evenodd" clip-rule="evenodd" d="M160.818 89.4255C129.253 70.6802 77.1886 68.9566 47.0566 78.1018C42.218 79.5693 37.1011 76.8378 35.6348 71.9992C34.1685 67.1582 36.8977 62.0448 41.7398 60.5739C76.3292 50.0746 133.829 52.1022 170.167 73.6725C174.52 76.2567 175.948 81.8775 173.367 86.2227C170.785 90.5749 165.16 92.0096 160.818 89.4255ZM159.784 117.19C157.571 120.783 152.872 121.909 149.284 119.704C122.968 103.527 82.8411 98.8419 51.7082 108.292C47.6705 109.512 43.4061 107.235 42.1806 103.206C40.9634 99.1682 43.2412 94.9119 47.2706 93.6841C82.8364 82.8925 127.048 88.1193 157.273 106.694C160.861 108.904 161.991 113.604 159.784 117.19ZM147.802 143.853C146.044 146.738 142.285 147.643 139.411 145.885C116.416 131.831 87.4727 128.656 53.3873 136.442C50.1027 137.195 46.8298 135.136 46.0803 131.853C45.3272 128.568 47.3782 125.295 50.6698 124.546C87.9709 116.018 119.968 119.688 145.778 135.46C148.656 137.218 149.562 140.977 147.802 143.853ZM102.895 2.61572C48.8141 2.61572 4.97192 46.4556 4.97192 100.536C4.97192 154.62 48.8141 198.459 102.895 198.459C156.977 198.459 200.817 154.62 200.817 100.536C200.817 46.4556 156.977 2.61572 102.895 2.61572Z" fill="#1ED760"/>
<path fill-rule="evenodd" clip-rule="evenodd" d="M271.384 93.0141C254.477 88.9823 251.466 86.1526 251.466 80.2078C251.466 74.5893 256.756 70.8101 264.621 70.8101C272.245 70.8101 279.803 73.6807 287.73 79.5904C287.97 79.7693 288.27 79.8407 288.566 79.7939C288.862 79.7495 289.123 79.5881 289.297 79.3425L297.552 67.7055C297.892 67.2261 297.799 66.5666 297.342 66.1995C287.909 58.6305 277.287 54.9507 264.871 54.9507C246.616 54.9507 233.865 65.906 233.865 81.5806C233.865 98.3895 244.864 104.341 263.873 108.935C280.051 112.662 282.782 115.783 282.782 121.365C282.782 127.55 277.26 131.394 268.375 131.394C258.507 131.394 250.456 128.07 241.451 120.272C241.228 120.08 240.922 119.991 240.639 120.008C240.342 120.032 240.069 120.17 239.88 120.398L230.623 131.414C230.235 131.872 230.284 132.554 230.732 132.95C241.21 142.303 254.095 147.244 268 147.244C287.672 147.244 300.383 136.495 300.383 119.859C300.383 105.799 291.983 98.0235 271.384 93.0141Z" fill="#1ED760"/>
<path fill-rule="evenodd" clip-rule="evenodd" d="M359.168 111.857C359.168 123.729 351.855 132.014 341.384 132.014C331.032 132.014 323.224 123.353 323.224 111.857C323.224 100.363 331.032 91.7008 341.384 91.7008C351.687 91.7008 359.168 100.176 359.168 111.857ZM344.889 76.3396C336.362 76.3396 329.368 79.6979 323.601 86.5793V78.8337C323.601 78.2222 323.106 77.7241 322.494 77.7241H307.356C306.744 77.7241 306.25 78.2222 306.25 78.8337V164.897C306.25 165.509 306.744 166.007 307.356 166.007H322.494C323.106 166.007 323.601 165.509 323.601 164.897V137.732C329.369 144.205 336.364 147.367 344.889 147.367C360.732 147.367 376.77 135.171 376.77 111.857C376.77 88.539 360.732 76.3396 344.889 76.3396Z" fill="#1ED760"/>
<path fill-rule="evenodd" clip-rule="evenodd" d="M417.881 132.138C407.028 132.138 398.847 123.418 398.847 111.857C398.847 100.249 406.745 91.8225 417.63 91.8225C428.553 91.8225 436.79 100.542 436.79 112.111C436.79 123.719 428.837 132.138 417.881 132.138ZM417.881 76.3396C397.477 76.3396 381.493 92.0505 381.493 112.111C381.493 131.953 397.367 147.499 417.63 147.499C438.106 147.499 454.14 131.841 454.14 111.857C454.14 91.9406 438.216 76.3396 417.881 76.3396Z" fill="#1ED760"/>
<path fill-rule="evenodd" clip-rule="evenodd" d="M497.711 77.7242H481.051V60.692C481.051 60.0805 480.558 59.5835 479.946 59.5835H464.81C464.197 59.5835 463.699 60.0805 463.699 60.692V77.7242H456.42C455.81 77.7242 455.317 78.2223 455.317 78.8339V91.8448C455.317 92.4552 455.81 92.9533 456.42 92.9533H463.699V126.62C463.699 140.225 470.47 147.123 483.825 147.123C489.255 147.123 493.761 146.002 498.007 143.594C498.351 143.401 498.567 143.029 498.567 142.634V130.244C498.567 129.861 498.367 129.501 498.04 129.3C497.711 129.093 497.3 129.083 496.962 129.25C494.046 130.717 491.227 131.394 488.076 131.394C483.219 131.394 481.051 129.19 481.051 124.248V92.9533H497.711C498.322 92.9533 498.815 92.4552 498.815 91.8448V78.8339C498.815 78.2223 498.322 77.7242 497.711 77.7242Z" fill="#1ED760"/>
<path fill-rule="evenodd" clip-rule="evenodd" d="M555.752 77.7907V75.6988C555.752 69.5447 558.111 66.8003 563.404 66.8003C566.56 66.8003 569.095 67.4271 571.934 68.3742C572.283 68.4841 572.648 68.4292 572.932 68.2199C573.225 68.0106 573.39 67.675 573.39 67.3195V54.5623C573.39 54.0759 573.076 53.6432 572.607 53.4994C569.608 52.6084 565.77 51.6917 560.024 51.6917C546.041 51.6917 538.651 59.5658 538.651 74.4546V77.6586H531.377C530.767 77.6586 530.267 78.1567 530.267 78.7671V91.8447C530.267 92.455 530.767 92.9532 531.377 92.9532H538.651V144.882C538.651 145.494 539.144 145.991 539.754 145.991H554.892C555.504 145.991 556.002 145.494 556.002 144.882V92.9532H570.137L591.789 144.868C589.331 150.323 586.914 151.408 583.614 151.408C580.947 151.408 578.138 150.612 575.266 149.04C574.996 148.892 574.677 148.867 574.385 148.957C574.096 149.06 573.853 149.274 573.73 149.556L568.599 160.813C568.355 161.345 568.563 161.969 569.075 162.245C574.432 165.147 579.268 166.385 585.243 166.385C596.422 166.385 602.6 161.177 608.048 147.168L634.312 79.3014C634.443 78.96 634.404 78.5753 634.195 78.2713C633.987 77.9719 633.651 77.7907 633.284 77.7907H617.524C617.053 77.7907 616.63 78.09 616.475 78.5344L600.331 124.649L582.647 78.504C582.486 78.0737 582.073 77.7907 581.613 77.7907H555.752Z" fill="#1ED760"/>
<path fill-rule="evenodd" clip-rule="evenodd" d="M522.104 77.7241H506.965C506.353 77.7241 505.856 78.2222 505.856 78.8338V144.882C505.856 145.494 506.353 145.991 506.965 145.991H522.104C522.714 145.991 523.212 145.494 523.212 144.882V78.8338C523.212 78.2222 522.714 77.7241 522.104 77.7241Z" fill="#1ED760"/>
<path fill-rule="evenodd" clip-rule="evenodd" d="M514.611 47.6506C508.615 47.6506 503.747 52.5068 503.747 58.5042C503.747 64.5039 508.615 69.3648 514.611 69.3648C520.606 69.3648 525.468 64.5039 525.468 58.5042C525.468 52.5068 520.606 47.6506 514.611 47.6506Z" fill="#1ED760"/>
<path fill-rule="evenodd" clip-rule="evenodd" d="M647.856 84.2944H645.083V87.8316H647.856C649.241 87.8316 650.067 87.1546 650.067 86.0613C650.067 84.9107 649.241 84.2944 647.856 84.2944ZM649.655 89.34L652.668 93.5589H650.127L647.414 89.6897H645.083V93.5589H642.956V82.3768H647.943C650.54 82.3768 652.249 83.7051 652.249 85.9432C652.249 87.7767 651.19 88.8969 649.655 89.34ZM647.293 78.6549C641.835 78.6549 637.705 82.993 637.705 88.3052C637.705 93.6139 641.806 97.8947 647.236 97.8947C652.692 97.8947 656.826 93.5589 656.826 88.2444C656.826 82.9345 652.723 78.6549 647.293 78.6549ZM647.236 98.96C641.245 98.96 636.583 94.1482 636.583 88.3052C636.583 82.461 641.306 77.5955 647.293 77.5955C653.283 77.5955 657.946 82.406 657.946 88.2444C657.946 94.0874 653.227 98.96 647.236 98.96Z" fill="#1ED760"/>
</svg>
