<svg width="663" height="148" viewBox="0 0 663 148" fill="none" xmlns="http://www.w3.org/2000/svg">
<g clip-path="url(#clip0)">
<path d="M206.959 23.1502C204.522 14.099 197.386 6.96246 188.334 4.5256C171.799 0 105.655 0 105.655 0C105.655 0 39.5119 0 22.9761 4.35154C14.099 6.7884 6.7884 14.099 4.35154 23.1502C0 39.686 0 73.9761 0 73.9761C0 73.9761 0 108.44 4.35154 124.802C6.7884 133.853 13.9249 140.99 22.9761 143.427C39.686 147.952 105.655 147.952 105.655 147.952C105.655 147.952 171.799 147.952 188.334 143.601C197.386 141.164 204.522 134.027 206.959 124.976C211.311 108.44 211.311 74.1502 211.311 74.1502C211.311 74.1502 211.485 39.686 206.959 23.1502Z" fill="#FF0000"/>
<path d="M84.5939 105.655L139.597 73.9761L84.5939 42.2969V105.655Z" fill="white"/>
<path d="M306.87 134.724C302.693 131.939 299.734 127.587 297.993 121.495C296.253 115.577 295.382 107.57 295.382 97.8228V84.42C295.382 74.4985 296.427 66.4917 298.341 60.3996C300.43 54.3074 303.563 49.9559 307.741 47.1709C312.092 44.3859 317.662 42.9934 324.625 42.9934C331.413 42.9934 336.983 44.3859 341.16 47.1709C345.338 49.9559 348.297 54.4815 350.212 60.3996C352.126 66.3176 353.171 74.3245 353.171 84.42V97.8228C353.171 107.744 352.3 115.577 350.386 121.669C348.471 127.587 345.512 132.113 341.334 134.898C337.157 137.683 331.413 139.075 324.276 139.075C316.966 138.901 311.048 137.509 306.87 134.724ZM330.369 120.103C331.587 117.144 332.109 112.096 332.109 105.307V76.4132C332.109 69.7989 331.587 64.9251 330.369 61.792C329.15 58.6589 327.235 57.2664 324.276 57.2664C321.491 57.2664 319.403 58.833 318.358 61.792C317.14 64.9251 316.618 69.7989 316.618 76.4132V105.307C316.618 112.096 317.14 117.144 318.358 120.103C319.403 123.062 321.491 124.628 324.45 124.628C327.235 124.628 329.15 123.236 330.369 120.103Z" fill="#282828"/>
<path d="M628.188 97.9966V102.696C628.188 108.614 628.362 113.14 628.71 116.099C629.058 119.058 629.754 121.321 630.973 122.539C632.017 123.932 633.758 124.628 636.195 124.628C639.328 124.628 641.417 123.41 642.635 120.973C643.853 118.536 644.376 114.532 644.55 108.788L662.478 109.833C662.652 110.703 662.652 111.747 662.652 113.14C662.652 121.669 660.389 128.109 655.69 132.287C650.99 136.464 644.376 138.553 635.847 138.553C625.577 138.553 618.44 135.246 614.263 128.805C610.085 122.365 607.997 112.444 607.997 98.8669V82.6791C607.997 68.7542 610.085 58.6587 614.437 52.2184C618.789 45.7781 626.099 42.645 636.369 42.645C643.505 42.645 649.075 44.0375 652.905 46.6484C656.734 49.2594 659.345 53.4368 660.911 58.8327C662.478 64.4027 663.174 72.0614 663.174 81.8088V97.6484H628.188V97.9966ZM630.799 59.0068C629.754 60.3993 629.058 62.488 628.71 65.4471C628.362 68.4061 628.188 72.9317 628.188 79.0239V85.6382H643.505V79.0239C643.505 73.1058 643.331 68.5802 642.983 65.4471C642.635 62.314 641.765 60.2252 640.72 59.0068C639.676 57.7884 637.935 57.0921 635.847 57.0921C633.41 56.9181 631.843 57.6143 630.799 59.0068Z" fill="#282828"/>
<path d="M256.044 96.2559L232.372 10.4436H253.085L261.44 49.2593C263.529 58.8327 265.096 67.0136 266.14 73.802H266.662C267.358 68.9282 268.925 60.9214 271.362 49.4334L280.065 10.4436H300.778L276.758 96.2559V137.334H256.218V96.2559H256.044Z" fill="#282828"/>
<path d="M420.533 44.7339V137.509H404.171L402.43 126.195H401.908C397.556 134.724 390.768 139.075 381.891 139.075C375.799 139.075 371.273 136.986 368.314 132.983C365.355 128.98 363.963 122.713 363.963 114.01V44.7339H384.85V112.792C384.85 116.969 385.372 119.928 386.242 121.669C387.113 123.41 388.679 124.28 390.768 124.28C392.509 124.28 394.249 123.758 395.99 122.539C397.731 121.495 398.949 120.102 399.645 118.362V44.7339H420.533Z" fill="#282828"/>
<path d="M527.58 44.7339V137.509H511.219L509.478 126.195H508.956C504.604 134.724 497.816 139.075 488.939 139.075C482.847 139.075 478.321 136.986 475.362 132.983C472.403 128.98 471.01 122.713 471.01 114.01V44.7339H491.898V112.792C491.898 116.969 492.42 119.928 493.29 121.669C494.161 123.41 495.727 124.28 497.816 124.28C499.556 124.28 501.297 123.758 503.038 122.539C504.778 121.495 505.997 120.102 506.693 118.362V44.7339H527.58Z" fill="#282828"/>
<path d="M477.276 27.3276H456.563V137.334H436.198V27.3276H415.485V10.4436H477.276V27.3276Z" fill="#282828"/>
<path d="M596.683 59.5289C595.464 53.6108 593.376 49.4333 590.591 46.8224C587.806 44.2115 583.802 42.819 578.929 42.819C575.099 42.819 571.444 43.8634 568.137 46.1262C564.83 48.2149 562.219 51.1739 560.478 54.6552H560.304V5.7439H540.113V137.334H557.345L559.434 128.631H559.956C561.522 131.764 563.959 134.201 567.266 136.116C570.574 137.857 574.055 138.901 578.058 138.901C585.195 138.901 590.242 135.594 593.55 129.153C596.857 122.713 598.597 112.444 598.597 98.6927V84.0715C598.423 73.4538 597.901 65.2729 596.683 59.5289ZM577.536 97.3002C577.536 104.089 577.188 109.31 576.666 113.14C576.143 116.969 575.099 119.754 573.881 121.321C572.488 122.887 570.748 123.758 568.659 123.758C566.918 123.758 565.352 123.409 563.959 122.539C562.567 121.669 561.348 120.45 560.478 118.884V66.3173C561.174 63.8804 562.393 61.7917 564.133 60.0511C565.874 58.4845 567.789 57.6142 569.703 57.6142C571.792 57.6142 573.533 58.4845 574.577 60.0511C575.795 61.7917 576.492 64.5767 577.014 68.406C577.536 72.4094 577.71 77.9794 577.71 85.1159V97.3002H577.536Z" fill="#282828"/>
</g>
<defs>
<clipPath id="clip0">
<rect width="663" height="147.952" fill="white"/>
</clipPath>
</defs>
</svg>
