<svg width="123" height="32" viewBox="0 0 123 32" fill="none" xmlns="http://www.w3.org/2000/svg">
<path fill-rule="evenodd" clip-rule="evenodd" d="M15.9444 32C24.7503 32 31.8889 24.8366 31.8889 16C31.8889 7.16344 24.7503 0 15.9444 0C7.13857 0 0 7.16344 0 16C0 24.8366 7.13857 32 15.9444 32ZM15.9444 8C15.0639 8 14.35 8.71634 14.35 9.6V22.4C14.35 23.2837 15.0639 24 15.9444 24C16.825 24 17.5389 23.2837 17.5389 22.4V9.6C17.5389 8.71634 16.825 8 15.9444 8ZM19.1333 13.76C19.1333 12.8763 19.8472 12.16 20.7278 12.16C21.6084 12.16 22.3222 12.8763 22.3222 13.76V18.24C22.3222 19.1237 21.6084 19.84 20.7278 19.84C19.8472 19.84 19.1333 19.1237 19.1333 18.24V13.76ZM11.1611 12.16C12.0417 12.16 12.7556 12.8763 12.7556 13.76V18.24C12.7556 19.1237 12.0417 19.84 11.1611 19.84C10.2805 19.84 9.56667 19.1237 9.56667 18.24V13.76C9.56667 12.8763 10.2805 12.16 11.1611 12.16ZM27.1056 16C27.1056 16.8837 26.3917 17.6 25.5111 17.6C24.6305 17.6 23.9167 16.8837 23.9167 16C23.9167 15.1163 24.6305 14.4 25.5111 14.4C26.3917 14.4 27.1056 15.1163 27.1056 16ZM6.37778 17.6C7.25836 17.6 7.97222 16.8837 7.97222 16C7.97222 15.1163 7.25836 14.4 6.37778 14.4C5.49719 14.4 4.78333 15.1163 4.78333 16C4.78333 16.8837 5.49719 17.6 6.37778 17.6Z" fill="white"/>
<path d="M39.1777 20.3386L44.5851 7.77455H47.1465L52.5538 20.3386H49.6011L48.4805 17.6842H43.251L42.1304 20.3386H39.1777ZM45.8658 11.473L44.2649 15.2422H47.4489L45.8658 11.473Z" fill="white"/>
<path d="M60.7435 11.4907V20.3386H58.0576V19.7369C57.4884 20.2678 56.8006 20.5333 55.9943 20.5333C54.8322 20.5333 53.931 20.1734 53.2906 19.4538C52.6503 18.7224 52.3301 17.7491 52.3301 16.534V11.4907H55.016V16.0739C55.016 17.4306 55.5318 18.1089 56.5635 18.1089C57.1327 18.1089 57.6307 17.8376 58.0576 17.2949V11.4907H60.7435Z" fill="white"/>
<path d="M65.8986 20.5333C64.618 20.5333 63.5685 20.085 62.7503 19.1884C61.9321 18.28 61.523 17.1887 61.523 15.9146C61.523 14.6405 61.9321 13.5552 62.7503 12.6586C63.5685 11.7502 64.618 11.296 65.8986 11.296C66.7406 11.296 67.4402 11.5438 67.9976 12.0392V7.42063H70.6835V20.3386H67.9976V19.7723C67.4521 20.2796 66.7524 20.5333 65.8986 20.5333ZM66.3078 18.1089C67.0074 18.1089 67.5707 17.8258 67.9976 17.2595V14.5521C67.5588 13.9976 66.9955 13.7204 66.3078 13.7204C65.7148 13.7204 65.2287 13.9327 64.8492 14.3574C64.4816 14.7821 64.2978 15.3012 64.2978 15.9146C64.2978 16.5281 64.4816 17.0472 64.8492 17.4719C65.2287 17.8966 65.7148 18.1089 66.3078 18.1089Z" fill="white"/>
<path d="M73.3404 10.6413C72.8898 10.6413 72.4985 10.482 72.1665 10.1635C71.8344 9.83316 71.6684 9.43796 71.6684 8.97786C71.6684 8.51777 71.8344 8.12846 72.1665 7.80994C72.4985 7.47961 72.8898 7.31445 73.3404 7.31445C73.8148 7.31445 74.212 7.47961 74.5322 7.80994C74.8642 8.12846 75.0302 8.51777 75.0302 8.97786C75.0302 9.43796 74.8642 9.83316 74.5322 10.1635C74.212 10.482 73.8148 10.6413 73.3404 10.6413ZM72.0064 20.3386V11.4907H74.6923V20.3386H72.0064Z" fill="white"/>
<path d="M83.4506 19.2061C82.5375 20.0909 81.4347 20.5333 80.1422 20.5333C78.8496 20.5333 77.7468 20.0909 76.8337 19.2061C75.9206 18.3095 75.4641 17.2123 75.4641 15.9146C75.4641 14.6169 75.9206 13.5257 76.8337 12.6409C77.7468 11.7443 78.8496 11.296 80.1422 11.296C81.4347 11.296 82.5375 11.7443 83.4506 12.6409C84.3637 13.5257 84.8202 14.6169 84.8202 15.9146C84.8202 17.2123 84.3637 18.3095 83.4506 19.2061ZM78.7192 17.4542C79.0986 17.8435 79.573 18.0381 80.1422 18.0381C80.7113 18.0381 81.1797 17.8435 81.5474 17.4542C81.9268 17.0649 82.1165 16.5517 82.1165 15.9146C82.1165 15.2776 81.9268 14.7644 81.5474 14.3751C81.1797 13.9858 80.7113 13.7911 80.1422 13.7911C79.573 13.7911 79.0986 13.9858 78.7192 14.3751C78.3516 14.7644 78.1678 15.2776 78.1678 15.9146C78.1678 16.5517 78.3516 17.0649 78.7192 17.4542Z" fill="white"/>
<path d="M85.5831 23.7716V11.4907H88.269V12.0392C88.8264 11.5438 89.526 11.296 90.3679 11.296C91.6486 11.296 92.6981 11.7502 93.5163 12.6586C94.3345 13.5552 94.7436 14.6405 94.7436 15.9146C94.7436 17.1887 94.3345 18.28 93.5163 19.1884C92.6981 20.085 91.6486 20.5333 90.3679 20.5333C89.5141 20.5333 88.8145 20.2796 88.269 19.7723V23.7716H85.5831ZM89.9588 18.1089C90.5517 18.1089 91.032 17.8966 91.3996 17.4719C91.7791 17.0472 91.9688 16.5281 91.9688 15.9146C91.9688 15.3012 91.7791 14.7821 91.3996 14.3574C91.032 13.9327 90.5517 13.7204 89.9588 13.7204C89.271 13.7204 88.7078 13.9976 88.269 14.5521V17.2595C88.6959 17.8258 89.2592 18.1089 89.9588 18.1089Z" fill="white"/>
<path d="M96.8844 10.6413C96.4338 10.6413 96.0424 10.482 95.7104 10.1635C95.3784 9.83316 95.2124 9.43796 95.2124 8.97786C95.2124 8.51777 95.3784 8.12846 95.7104 7.80994C96.0424 7.47961 96.4338 7.31445 96.8844 7.31445C97.3587 7.31445 97.7559 7.47961 98.0761 7.80994C98.4081 8.12846 98.5742 8.51777 98.5742 8.97786C98.5742 9.43796 98.4081 9.83316 98.0761 10.1635C97.7559 10.482 97.3587 10.6413 96.8844 10.6413ZM95.5503 20.3386V11.4907H98.2362V20.3386H95.5503Z" fill="white"/>
<path d="M107.866 11.4907V20.3386H105.18V19.7369C104.611 20.2678 103.923 20.5333 103.117 20.5333C101.955 20.5333 101.054 20.1734 100.413 19.4538C99.7729 18.7224 99.4527 17.7491 99.4527 16.534V11.4907H102.139V16.0739C102.139 17.4306 102.654 18.1089 103.686 18.1089C104.255 18.1089 104.753 17.8376 105.18 17.2949V11.4907H107.866Z" fill="white"/>
<path d="M120.314 20.3386V15.8085C120.314 14.44 119.846 13.7557 118.909 13.7557C118.221 13.7557 117.705 14.0389 117.361 14.6051C117.409 14.8057 117.433 15.0475 117.433 15.3307V20.3386H114.747V15.8085C114.747 14.44 114.278 13.7557 113.341 13.7557C113.045 13.7557 112.76 13.8265 112.488 13.9681C112.215 14.1097 112.007 14.2925 111.865 14.5167V20.3386H109.179V11.4907H111.865V12.11C112.079 11.8741 112.375 11.6794 112.754 11.5261C113.146 11.3727 113.537 11.296 113.928 11.296C114.936 11.296 115.766 11.6558 116.419 12.3755C117.095 11.6558 118.049 11.296 119.282 11.296C120.528 11.296 121.458 11.6735 122.075 12.4286C122.692 13.1836 123 14.1509 123 15.3307V20.3386H120.314Z" fill="white"/>
</svg>
